<?xml version="1.0" encoding="utf-8"?>
<!-- Generator: Adobe Illustrator 24.2.1, SVG Export Plug-In . SVG Version: 6.00 Build 0)  -->
<svg version="1.1" id="圖層_1" xmlns="http://www.w3.org/2000/svg" xmlns:xlink="http://www.w3.org/1999/xlink" x="0px" y="0px"
	 viewBox="0 0 53 66" style="enable-background:new 0 0 53 66;" xml:space="preserve">
<style type="text/css">
	.st0{fill:#FF0000;}
	.st1{fill:#FFFFFF;}
	.st2{fill:none;stroke:#000000;stroke-width:1.8411;stroke-miterlimit:10;}
</style>
<g>
	<path class="st0" d="M51.5,27.05c0.16,7.02-3.53,14.82-8.85,19.47c-4.37,3.82-7.86,3.79-11.38,8.85
		c-3.55,5.11-3.45,10.12-5.06,10.12c-1.61,0-1.51-5.01-5.06-10.12c-3.52-5.06-7.02-5.04-11.38-8.85C4.44,41.87,0.75,34.08,0.9,27.05
		c0.23-10.55,9.97-24.8,25.3-24.8C41.7,2.25,51.26,16.6,51.5,27.05z"/>
</g>
<circle class="st1" cx="26.5" cy="27.02" r="19.2"/>
<g>
	<path d="M36.95,31.11c0,6.84-5.54,12.38-12.38,12.38c-6.84,0-12.38-5.54-12.38-12.38"/>
	<path class="st2" d="M36.74,33.36c4.76-1.06,4.76,1.42,4.76,1.42l-2.38,3.19l-4.93,0.92"/>
	<g>
		<path class="st2" d="M27.28,29.83c0-2.89,3.68-2.89,3.68-5.77c0-2.89-3.68-2.89-3.68-5.78s3.68-2.89,3.68-5.78"/>
	</g>
	<g>
		<path class="st2" d="M17.38,29.83c0-2.89,3.68-2.89,3.68-5.77c0-2.89-3.68-2.89-3.68-5.78s3.68-2.89,3.68-5.78"/>
	</g>
</g>
</svg>
