<?xml version="1.0" encoding="utf-8"?>
<!-- Generator: Adobe Illustrator 24.2.1, SVG Export Plug-In . SVG Version: 6.00 Build 0)  -->
<svg version="1.1" id="圖層_1" xmlns="http://www.w3.org/2000/svg" xmlns:xlink="http://www.w3.org/1999/xlink" x="0px" y="0px"
	 viewBox="0 0 53 66" style="enable-background:new 0 0 53 66;" xml:space="preserve">
<style type="text/css">
	.st0{fill:#FF0000;}
	.st1{fill:#FFFFFF;}
</style>
<g>
	<path class="st0" d="M52,26.6c0.16,7.11-3.57,15-8.96,19.7c-4.42,3.86-7.96,3.84-11.52,8.96c-3.59,5.17-3.49,10.24-5.12,10.24
		s-1.53-5.07-5.12-10.24c-3.56-5.12-7.1-5.1-11.52-8.96C4.38,41.59,0.65,33.7,0.8,26.6C1.04,15.92,10.9,1.5,26.4,1.5
		C42.09,1.5,51.76,16.02,52,26.6z"/>
</g>
<circle class="st1" cx="26.4" cy="26.46" r="19.2"/>
<g>
	<rect x="11.85" y="27.35" width="29.91" height="9.35"/>
	<g>
		<rect x="11.85" y="16.14" width="29.91" height="3.74"/>
		<rect x="11.85" y="19.88" class="st1" width="29.91" height="3.74"/>
		<rect x="11.85" y="23.62" width="29.91" height="3.74"/>
		<rect x="32.41" y="31.09" class="st1" width="5.61" height="5.61"/>
		<rect x="17.46" y="29.22" class="st1" width="9.35" height="3.74"/>
	</g>
</g>
</svg>
