<?xml version="1.0" encoding="utf-8"?>
<!-- Generator: Adobe Illustrator 25.2.1, SVG Export Plug-In . SVG Version: 6.00 Build 0)  -->
<svg version="1.1" id="圖層_1" xmlns="http://www.w3.org/2000/svg" xmlns:xlink="http://www.w3.org/1999/xlink" x="0px" y="0px"
	 viewBox="0 0 28 50" style="enable-background:new 0 0 28 50;" xml:space="preserve">
<style type="text/css">
	.st0{clip-path:url(#SVGID_2_);}
	.st1{clip-path:url(#SVGID_4_);fill:#D83A3A;}
	.st2{clip-path:url(#SVGID_4_);fill:#FFFFFF;}
	.st3{clip-path:url(#SVGID_4_);fill:#2D2D2D;}
	.st4{clip-path:url(#SVGID_4_);}
	.st5{clip-path:url(#SVGID_4_);fill:none;stroke:#FFFFFF;stroke-width:0.1435;stroke-miterlimit:10;}
</style>
<g>
	<defs>
		<rect id="SVGID_1_" x="0.5" width="27.5" height="50.2"/>
	</defs>
	<clipPath id="SVGID_2_">
		<use xlink:href="#SVGID_1_"  style="overflow:visible;"/>
	</clipPath>
	<g class="st0">
		<defs>
			<rect id="SVGID_3_" x="-42" y="-0.6" width="71.7" height="71.7"/>
		</defs>
		<clipPath id="SVGID_4_">
			<use xlink:href="#SVGID_3_"  style="overflow:visible;"/>
		</clipPath>
		<path class="st1" d="M27.5,13.8c0,7.4-13.3,35.5-13.3,35.5S0.8,21.2,0.8,13.8c0-7.4,6-13.3,13.3-13.3C21.5,0.5,27.5,6.5,27.5,13.8
			"/>
		<path class="st2" d="M25.6,13.3c0,6.3-5.1,11.5-11.5,11.5c-6.3,0-11.5-5.1-11.5-11.5S7.8,1.8,14.2,1.8C20.5,1.8,25.6,7,25.6,13.3"
			/>
		<path class="st3" d="M13.4,4.2v15.2v2.1c0,0.9,1.4,0.9,1.4,0V6.4V4.2C14.8,3.3,13.4,3.3,13.4,4.2"/>
		<path class="st3" d="M20.4,14.7h-2.2c-0.1,0-0.2-0.1-0.2-0.2V8.4c0-0.1,0.1-0.2,0.2-0.2h2.2c0.1,0,0.2,0.1,0.2,0.2v6.1
			C20.6,14.6,20.5,14.7,20.4,14.7"/>
		<path class="st4" d="M20.5,6.8c0,0.7-0.6,1.3-1.3,1.3c-0.7,0-1.3-0.6-1.3-1.3c0-0.7,0.6-1.3,1.3-1.3C20,5.5,20.5,6,20.5,6.8"/>
		<path class="st4" d="M20.4,21.4h-1c-0.1,0-0.1-0.1-0.1-0.1V15c0-0.1,0.1-0.1,0.1-0.1h1c0.1,0,0.1,0.1,0.1,0.1v6.3
			C20.5,21.3,20.5,21.4,20.4,21.4"/>
		<path class="st3" d="M18.5,21.2l-0.9-0.2c-0.1,0-0.1-0.1-0.1-0.1l1.3-2.5c0-0.1,0-0.2,0-0.3L17.9,15c0-0.1,0.1-0.1,0.1-0.1h1
			c0.1,0,0.1,0.1,0.1,0.1l0.8,3.1c0,0.1,0,0.2,0,0.3L18.6,21C18.6,21.1,18.5,21.2,18.5,21.2"/>
		<path class="st5" d="M18.5,21.2l-0.9-0.2c-0.1,0-0.1-0.1-0.1-0.1l1.3-2.5c0-0.1,0-0.2,0-0.3L17.9,15c0-0.1,0.1-0.1,0.1-0.1h1
			c0.1,0,0.1,0.1,0.1,0.1l0.8,3.1c0,0.1,0,0.2,0,0.3L18.6,21C18.6,21.1,18.5,21.2,18.5,21.2z"/>
		<path class="st3" d="M19.5,15.1L19.5,15.1c-0.4,0-0.7-0.2-0.7-0.6l1.1-2.9c0-0.1,0-0.1,0-0.2l-0.2-2.5c0-0.4,0.2-0.7,0.6-0.7
			c0.4,0,0.7,0.2,0.7,0.6l0.2,2.5c0,0.1,0,0.1,0,0.2l-1.1,2.9C20.2,14.7,19.9,15.1,19.5,15.1"/>
		<path class="st5" d="M19.5,15.1L19.5,15.1c-0.4,0-0.7-0.2-0.7-0.6l1.1-2.9c0-0.1,0-0.1,0-0.2l-0.2-2.5c0-0.4,0.2-0.7,0.6-0.7
			c0.4,0,0.7,0.2,0.7,0.6l0.2,2.5c0,0.1,0,0.1,0,0.2l-1.1,2.9C20.2,14.7,19.9,15.1,19.5,15.1z"/>
		<path class="st3" d="M17.6,15L17.6,15c-0.4,0-0.6-0.3-0.6-0.7c0,0,0-2.8,0-2.8l0.2-2.7c0-0.4,0.3-0.6,0.7-0.6
			c0.4,0,0.6,0.3,0.6,0.7l-0.2,2.7c0,0.1,0,2.8,0,2.8C18.2,14.7,17.9,15,17.6,15"/>
		<path class="st5" d="M17.6,15L17.6,15c-0.4,0-0.6-0.3-0.6-0.7c0,0,0-2.8,0-2.8l0.2-2.7c0-0.4,0.3-0.6,0.7-0.6
			c0.4,0,0.6,0.3,0.6,0.7l-0.2,2.7c0,0.1,0,2.8,0,2.8C18.2,14.7,17.9,15,17.6,15z"/>
		<path class="st3" d="M11.6,14.8H7.3c-0.1,0-0.2-0.1-0.2-0.2l1-6.1c0-0.1,0.1-0.2,0.2-0.2h2.2c0.1,0,0.2,0.1,0.2,0.2l1,6.1
			C11.8,14.7,11.7,14.8,11.6,14.8"/>
		<path class="st4" d="M10.7,6.9c0,0.7-0.6,1.3-1.3,1.3c-0.7,0-1.3-0.6-1.3-1.3c0-0.7,0.6-1.3,1.3-1.3C10.2,5.6,10.7,6.2,10.7,6.9"
			/>
		<path class="st4" d="M8,21.5h1c0.1,0,0.1-0.1,0.1-0.1v-6.3C9.2,15.1,9.1,15,9,15H8c-0.1,0-0.1,0.1-0.1,0.1v6.3
			C7.9,21.5,7.9,21.5,8,21.5"/>
		<path class="st3" d="M9.9,21.3l0.9-0.2c0.1,0,0.1-0.1,0.1-0.1l-1.3-2.5c0-0.1,0-0.2,0-0.3l0.8-3.1c0-0.1-0.1-0.1-0.1-0.1h-1
			c-0.1,0-0.1,0.1-0.1,0.1l-0.8,3.1c0,0.1,0,0.2,0,0.3l1.4,2.7C9.8,21.2,9.8,21.3,9.9,21.3"/>
		<path class="st5" d="M9.9,21.3l0.9-0.2c0.1,0,0.1-0.1,0.1-0.1l-1.3-2.5c0-0.1,0-0.2,0-0.3l0.8-3.1c0-0.1-0.1-0.1-0.1-0.1h-1
			c-0.1,0-0.1,0.1-0.1,0.1l-0.8,3.1c0,0.1,0,0.2,0,0.3l1.4,2.7C9.8,21.2,9.8,21.3,9.9,21.3z"/>
		<path class="st3" d="M9.5,15.2L9.5,15.2c-0.4,0-0.7-0.3-0.7-0.7l1.3-2.8c0-0.1,0-0.1,0-0.2V9c0-0.4,0.3-0.7,0.7-0.7
			c0.4,0,0.7,0.3,0.7,0.7v2.5c0,0.1,0,0.1,0,0.2l-1.3,2.8C10.1,14.9,9.8,15.2,9.5,15.2"/>
		<path class="st5" d="M9.5,15.2L9.5,15.2c-0.4,0-0.7-0.3-0.7-0.7l1.3-2.8c0-0.1,0-0.1,0-0.2V9c0-0.4,0.3-0.7,0.7-0.7
			c0.4,0,0.7,0.3,0.7,0.7v2.5c0,0.1,0,0.1,0,0.2l-1.3,2.8C10.1,14.9,9.8,15.2,9.5,15.2z"/>
		<path class="st3" d="M8.6,15.1L8.6,15.1c0.4,0,0.7-0.3,0.7-0.7c0,0-0.4-2.9-0.4-3V9c0-0.4-0.3-0.7-0.7-0.7C7.9,8.3,7.6,8.6,7.6,9
			v2.5c0,0.1,0.4,3,0.4,3C8,14.8,8.3,15.1,8.6,15.1"/>
		<path class="st5" d="M8.6,15.1L8.6,15.1c0.4,0,0.7-0.3,0.7-0.7c0,0-0.4-2.9-0.4-3V9c0-0.4-0.3-0.7-0.7-0.7C7.9,8.3,7.6,8.6,7.6,9
			v2.5c0,0.1,0.4,3,0.4,3C8,14.8,8.3,15.1,8.6,15.1z"/>
	</g>
	<g class="st0">
		<defs>
			<rect id="SVGID_5_" x="-41.1" y="6.5" width="71.7" height="71.7"/>
		</defs>
		<clipPath id="SVGID_6_">
			<use xlink:href="#SVGID_5_"  style="overflow:visible;"/>
		</clipPath>
	</g>
	<g class="st0">
		<defs>
			<rect id="SVGID_7_" x="-41.1" y="6.5" width="71.7" height="71.7"/>
		</defs>
		<clipPath id="SVGID_8_">
			<use xlink:href="#SVGID_7_"  style="overflow:visible;"/>
		</clipPath>
	</g>
</g>
</svg>
