<?xml version="1.0" encoding="utf-8"?>
<!-- Generator: Adobe Illustrator 24.2.1, SVG Export Plug-In . SVG Version: 6.00 Build 0)  -->
<svg version="1.1" id="圖層_1" xmlns="http://www.w3.org/2000/svg" xmlns:xlink="http://www.w3.org/1999/xlink" x="0px" y="0px"
	 viewBox="0 0 53 66" style="enable-background:new 0 0 53 66;" xml:space="preserve">
<style type="text/css">
	.st0{fill:#FF0000;}
	.st1{fill:#FFFFFF;}
</style>
<g>
	<path class="st0" d="M52,26.1c0.16,7.11-3.57,15-8.96,19.7c-4.42,3.86-7.96,3.84-11.52,8.96C27.93,59.93,28.02,65,26.4,65
		s-1.53-5.07-5.12-10.24c-3.56-5.12-7.1-5.1-11.52-8.96C4.38,41.09,0.65,33.2,0.8,26.1C1.04,15.42,10.9,1,26.4,1
		C42.09,1,51.76,15.52,52,26.1z"/>
</g>
<circle class="st1" cx="26.4" cy="25.96" r="19.2"/>
<g>
	<path d="M35.11,12.19l-0.32-0.26c-0.54-0.44-1.33-0.34-1.75,0.21l-6.71,8.61c-0.86,1.1-0.68,2.7,0.4,3.57l0.32,0.26l8.27-10.6
		C35.74,13.43,35.65,12.63,35.11,12.19z"/>
	<path d="M38.53,14.95l-0.32-0.26c-0.54-0.44-1.33-0.34-1.75,0.21l-7.49,9.6c-0.43,0.55-0.34,1.35,0.2,1.79l0.32,0.26
		c0.54,0.44,1.33,0.34,1.75-0.21l7.49-9.6C39.16,16.19,39.07,15.39,38.53,14.95z"/>
	<path d="M31.38,23.78L31.38,23.78c1.01,0.82-11.25,18.26-11.25,18.26c-0.6,0.77-1.91,0.73-2.92-0.08l0,0
		c-1.01-0.82-1.35-2.11-0.74-2.88C16.46,39.08,30.37,22.97,31.38,23.78z"/>
	<path d="M41.95,17.72l-0.32-0.26c-0.54-0.44-1.33-0.34-1.75,0.21l-8.27,10.6l0.32,0.26c1.08,0.87,2.65,0.69,3.51-0.41l6.71-8.61
		C42.58,18.95,42.49,18.15,41.95,17.72z"/>
	<path d="M31.93,28.52l-5.2-4.2c-1.08-0.87-1.26-2.47-0.4-3.57l1.16-1.49l9.11,7.36l-1.16,1.49C34.58,29.21,33.01,29.39,31.93,28.52
		z"/>
</g>
<g>
	<path d="M23.82,24.19l-4.11,3.01c-1.42-1.05-3.4-2.95-4.5-6.14c-1.2-3.5-0.82-7-0.39-9.15C17.82,16,20.82,20.1,23.82,24.19z"/>
	<rect x="26.45" y="22.13" transform="matrix(0.8068 -0.5908 0.5908 0.8068 -14.0047 22.9686)" width="3.34" height="21.54"/>
</g>
<path d="M34.25,27.55"/>
</svg>
